<svg>
<symbol id="station" width="66" height="70" viewBox="0 0 66 70" xmlns="http://www.w3.org/2000/svg">
<path d="M65.3162 48.3385L46.8467 29.7337L48.8966 19.6373C49.4255 19.8438 49.9878 19.9517 50.5556 19.9558H50.5696C53.1776 19.9866 55.3169 17.8974 55.3478 15.2893C55.3787 12.6812 53.2894 10.542 50.6813 10.5111C48.0732 10.4803 45.934 12.5695 45.903 15.1776C45.8965 15.7357 45.9888 16.2905 46.1759 16.8163L35.3259 18.1405L17.6276 0.35C17.4104 0.128479 17.1141 0.00247917 16.8039 0C16.4976 0.00160417 16.2044 0.123521 15.9872 0.3395L12.6786 3.6295C12.2231 4.08508 12.2231 4.82358 12.6786 5.27917L14.4589 7.08517C7.56156 19.7681 9.80185 35.4741 19.9702 45.7228C20.0636 45.8121 20.1718 45.8843 20.2899 45.9363C20.2164 46.3311 20.178 46.7317 20.1756 47.1333V60.6667H6.17556C2.95556 60.6705 0.346016 63.28 0.342224 66.5V68.8333C0.342224 69.4776 0.864599 70 1.50889 70H55.1756C55.8199 70 56.3422 69.4776 56.3422 68.8333V66.5C56.3384 63.28 53.7289 60.6705 50.5089 60.6667H36.5089V54.6688C38.7021 55.1288 40.9367 55.3633 43.1776 55.3688C48.5547 55.363 53.8463 54.0225 58.5776 51.4675L60.3672 53.2677C60.5844 53.4892 60.8807 53.6152 61.1909 53.6177C61.4971 53.6161 61.7904 53.4941 62.0076 53.2782L65.3162 49.9882C65.7717 49.5326 65.7717 48.7941 65.3162 48.3385ZM48.9246 13.6348C49.8382 12.726 51.3156 12.7301 52.2243 13.6437C53.1332 14.5574 53.1291 16.0348 52.2154 16.9435C51.7781 17.3785 51.1863 17.6226 50.5694 17.6225H50.5624C49.2738 17.6158 48.2345 16.5658 48.2412 15.2771C48.2444 14.6602 48.4917 14.0699 48.9291 13.6348H48.9246ZM46.1782 21.301L44.8692 27.7445L42.2979 25.158L46.1782 21.301ZM44.8529 19.3282L40.6529 23.5037L37.4037 20.237L44.8529 19.3282ZM50.5089 63C52.4419 63 54.0089 64.567 54.0089 66.5V67.6667H2.67556V66.5C2.67556 64.567 4.24254 63 6.17556 63H50.5089ZM34.1756 58.3333V60.6667H22.5089V58.3333H34.1756ZM22.5089 56V47.1333C22.5089 44.303 25.1257 42 28.3422 42C31.5587 42 34.1756 44.303 34.1756 47.1333V56H22.5089ZM36.5089 52.29V47.1333C36.5089 43.0162 32.8456 39.6667 28.3422 39.6667C25.4305 39.622 22.7078 41.1041 21.1649 43.5738C12.2886 34.2249 10.2898 20.2875 16.1805 8.82073L56.8719 49.7455C50.5885 52.9419 43.3857 53.8418 36.5089 52.29ZM61.2037 50.7943L59.5599 49.1412L16.7922 6.11567L15.1414 4.46133L16.7922 2.81633L34.1499 20.272C34.1581 20.272 34.1627 20.2872 34.1709 20.293L62.8592 49.1493L61.2037 50.7943Z" fill="#212121"/>
</symbol>

<symbol id="clocks" width="68" height="70" viewBox="0 0 68 70" xmlns="http://www.w3.org/2000/svg">
<path d="M67.4614 33.4715C67.4577 14.9819 52.4656 -0.00373771 33.9755 6.99302e-07C15.4859 0.00373911 0.500199 14.9963 0.503937 33.4859C0.507142 48.0502 9.92525 60.9413 23.7995 65.3713C23.932 65.413 24.0698 65.4343 24.2081 65.4338C24.4719 65.4333 24.7304 65.3628 24.9574 65.2287C25.2527 65.0541 25.4733 64.7764 25.5769 64.449L34.0315 37.6521C36.3429 37.6404 38.2068 35.7568 38.1945 33.4459C38.1828 31.1345 36.2997 29.2706 33.9883 29.2824C33.3666 29.285 32.753 29.4282 32.1944 29.7011L21.0251 18.5302C20.4708 17.9951 19.588 18.0106 19.0528 18.5644C18.5305 19.1054 18.5305 19.962 19.0528 20.503L30.2162 31.6792C29.3596 33.4277 29.8493 35.5383 31.3896 36.7303L23.3338 62.2647C7.41358 56.4002 -0.738281 38.7405 5.12621 22.8203C10.9907 6.90002 28.6504 -1.25183 44.5706 4.61266C60.4909 10.4771 68.6428 28.1374 62.7783 44.0571C59.913 51.8351 54.0261 58.1252 46.4548 61.4989L45.5843 57.3989C45.4251 56.6454 44.6844 56.1636 43.9308 56.3233C43.6932 56.3741 43.4726 56.4857 43.291 56.6475L34.8978 64.1409C34.3221 64.653 34.2708 65.5347 34.7835 66.1105C34.9501 66.2974 35.1637 66.4362 35.403 66.5126L46.1189 69.9327C46.8521 70.1682 47.6377 69.765 47.8732 69.0312C47.948 68.7994 47.9603 68.5527 47.9101 68.3145L47.0545 64.2915C59.4452 59.0678 67.4903 46.918 67.4614 33.4715ZM33.9829 32.0766C34.7531 32.0766 35.3779 32.7014 35.3779 33.4715C35.3779 34.2422 34.7531 34.8665 33.9829 34.8665C33.2123 34.8665 32.588 34.2422 32.588 33.4715C32.588 32.7014 33.2123 32.0766 33.9829 32.0766ZM38.5774 64.5916L43.3551 60.3298L44.6737 66.543L38.5774 64.5916Z" fill="#212121"/>
</symbol>

<symbol id="computer" width="70" height="54" viewBox="0 0 70 54" xmlns="http://www.w3.org/2000/svg">
<path d="M3.49817 53.8866H59.4689C61.4007 53.8866 62.967 52.3203 62.967 50.3884V45.7242C62.967 43.7923 61.4007 42.226 59.4689 42.226H58.3028V13.1469L64.9262 6.87253C66.4635 7.63035 68.3242 7.17031 69.3302 5.78163C70.3369 4.39352 70.1957 2.48217 68.9966 1.2569C67.7975 0.0316271 65.8901 -0.151139 64.4798 0.824181C63.0701 1.80007 62.569 3.64993 63.2933 5.20372L58.3028 9.93456V7.24432C58.3028 5.31247 56.7365 3.74615 54.8046 3.74615H8.16239C6.23054 3.74615 4.66422 5.31247 4.66422 7.24432V42.226H3.49817C1.56632 42.226 0 43.7923 0 45.7242V50.3884C0 52.3203 1.56632 53.8866 3.49817 53.8866ZM66.4652 2.5801C67.1091 2.5801 67.6312 3.1022 67.6312 3.74615C67.6312 4.3901 67.1091 4.91221 66.4652 4.91221C65.8212 4.91221 65.2991 4.3901 65.2991 3.74615C65.2991 3.1022 65.8212 2.5801 66.4652 2.5801ZM6.99634 7.24432C6.99634 6.60037 7.51844 6.07827 8.16239 6.07827H54.8046C55.4486 6.07827 55.9707 6.60037 55.9707 7.24432V12.1414L53.6386 14.3574V9.57644C53.6386 8.93248 53.1165 8.41038 52.4725 8.41038H10.4945C9.85055 8.41038 9.32845 8.93248 9.32845 9.57644V38.7278C9.32845 39.3718 9.85055 39.8939 10.4945 39.8939H52.4725C53.1165 39.8939 53.6386 39.3718 53.6386 38.7278V17.5652L55.9707 15.3555V42.226H6.99634V7.24432ZM17.4908 22.4031C15.9131 22.3985 14.5279 23.4495 14.1083 24.9703C13.6886 26.4911 14.3383 28.1041 15.6951 28.9092C17.0513 29.7143 18.7793 29.5121 19.9129 28.415L23.9662 30.4487C24.4371 30.6844 25.0081 30.574 25.3583 30.1806L33.9745 20.4871L42.4443 26.8338C42.8987 27.1743 43.5329 27.1379 43.9452 26.7479L51.3065 19.7749V37.5618H11.6606V10.7425H51.3065V16.562L43.0564 24.3748L34.5154 17.9717C34.0303 17.6084 33.3476 17.6768 32.9445 18.1294L24.2099 27.9572L20.9446 26.3243C20.9685 26.1842 20.9833 26.043 20.989 25.9012C20.989 23.9694 19.4227 22.4031 17.4908 22.4031ZM18.6569 25.9012C18.6569 26.5452 18.1348 27.0673 17.4908 27.0673C16.8469 27.0673 16.3248 26.5452 16.3248 25.9012C16.3248 25.2573 16.8469 24.7352 17.4908 24.7352C18.1348 24.7352 18.6569 25.2573 18.6569 25.9012ZM25.6532 44.5581H37.3138V45.7242C37.3138 46.3681 36.7917 46.8902 36.1477 46.8902H26.8193C26.1753 46.8902 25.6532 46.3681 25.6532 45.7242V44.5581ZM2.33211 45.7242C2.33211 45.0802 2.85422 44.5581 3.49817 44.5581H23.3211V45.7242C23.3211 47.656 24.8874 49.2223 26.8193 49.2223H36.1477C38.0796 49.2223 39.6459 47.656 39.6459 45.7242V44.5581H59.4689C60.1128 44.5581 60.6349 45.0802 60.6349 45.7242V50.3884C60.6349 51.0324 60.1128 51.5545 59.4689 51.5545H3.49817C2.85422 51.5545 2.33211 51.0324 2.33211 50.3884V45.7242Z" fill="#212121"/>
</symbol>

<symbol id="astonaut" width="55" height="61" viewBox="0 0 55 61" xmlns="http://www.w3.org/2000/svg">
<path d="M54.0635 25.9737C53.4348 25.1255 52.5119 24.5796 51.4642 24.4325C50.4119 24.2832 49.3735 24.5596 48.5335 25.2025L45.7952 27.3013L45.794 27.3025L41.6429 30.4024L38.6725 29.2194C43.9692 26.8429 47.6712 21.545 47.6712 15.3942C47.6712 7.03135 40.8402 0.227295 32.4436 0.227295C24.047 0.227295 17.2162 7.03135 17.2162 15.3942C17.2162 18.4253 18.1226 21.2439 19.6662 23.6157L13.6204 23.5632C13.6169 23.5632 13.6134 23.5632 13.6099 23.5632C13.5912 23.5632 13.5761 23.5725 13.5586 23.5738C13.4431 23.5784 13.3299 23.6018 13.2191 23.6414C13.1911 23.652 13.162 23.6578 13.1352 23.6705C13.1212 23.6764 13.1072 23.6775 13.0932 23.6845L6.02078 27.1763C6.01955 27.1763 6.01846 27.1763 6.01846 27.1774L1.87663 29.1692C1.8311 29.189 1.78448 29.2158 1.73895 29.2462C0.0880496 30.3451 -0.474284 32.5035 0.429989 34.2675C0.911793 35.2055 1.73198 35.8963 2.74003 36.2124C3.12859 36.3336 3.52521 36.3932 3.91952 36.3932C4.55308 36.3932 5.18077 36.2381 5.75582 35.9313L8.79157 34.3166L13.7441 31.7592L16.7122 31.7417L4.80848 43.5883C4.80738 43.5895 4.80615 43.5895 4.80492 43.5906L1.8765 46.5073C1.18469 47.1957 0.80433 48.1091 0.80433 49.0834C0.80433 50.0564 1.18469 50.9722 1.8765 51.6618C2.58703 52.3688 3.52152 52.7235 4.45601 52.7235C5.39173 52.7235 6.32498 52.3688 7.03785 51.6618L9.91254 48.7987L13.7206 45.9555L15.6912 47.9179L11.8376 51.7551C11.8365 51.7563 11.8352 51.7563 11.834 51.7574L8.90559 54.6741C8.21378 55.3624 7.83343 56.2759 7.83343 57.2501C7.83343 58.2232 8.21378 59.1389 8.90559 59.8286C9.61613 60.5356 10.5518 60.8902 11.4863 60.8902C12.4208 60.8902 13.3565 60.5356 14.0682 59.8286L16.9977 56.9119L21.6842 52.2452C21.6854 52.244 21.6854 52.2429 21.6865 52.2417L23.8951 50.0541L23.8869 50.0459C23.9009 50.032 23.9207 50.0272 23.9348 50.0121L35.2353 37.6348L42.8281 38.7152C42.8829 38.7234 42.9377 38.7268 42.9926 38.7268C43.1338 38.7268 43.2703 38.693 43.4021 38.6428C43.4406 38.6289 43.4744 38.6102 43.5106 38.5916C43.5526 38.5705 43.5969 38.5589 43.6367 38.5321L50.6659 33.8654C50.6916 33.8479 50.7056 33.8199 50.73 33.8013C50.758 33.7791 50.7931 33.7698 50.8186 33.7452L53.5999 31.14C55.0471 29.784 55.2466 27.5627 54.0635 25.9737ZM4.66027 33.8721C4.28114 34.0751 3.85061 34.1159 3.43881 33.9853C3.03042 33.8582 2.69915 33.5793 2.50541 33.2025C2.15308 32.5164 2.35721 31.681 2.97436 31.2296L5.84796 29.8471L6.53977 31.8689L6.8303 32.7182L4.66027 33.8721ZM12.3102 29.874L8.92336 31.624L8.36459 29.9906L7.96331 28.8169L12.3968 26.6281L12.3102 29.874ZM45.3402 15.3918C45.3402 17.4008 44.8607 19.2956 44.03 20.9907L34.8832 16.8361C34.7875 15.582 34.1366 14.4841 33.1589 13.8004L36.3615 3.16843C41.5626 4.82289 45.3402 9.67512 45.3402 15.3918ZM19.5519 15.3918C19.5519 8.31584 25.3363 2.55825 32.4461 2.55825C32.9991 2.55825 33.5404 2.60487 34.0759 2.67255L30.9434 13.0713C30.9014 13.07 30.8617 13.0584 30.8185 13.0584C28.5598 13.0584 26.7222 14.8901 26.7222 17.1419C26.7222 19.3935 28.5598 21.2253 30.8185 21.2253C32.3375 21.2253 33.65 20.3865 34.3582 19.159L42.8073 22.9975C40.4564 26.1615 36.6938 28.2254 32.4459 28.2254C25.3363 28.2254 19.5519 22.4678 19.5519 15.3918ZM32.5814 17.1419C32.5814 18.1067 31.7903 18.8919 30.8185 18.8919C29.8467 18.8919 29.0557 18.1067 29.0557 17.1419C29.0557 16.177 29.8467 15.3918 30.8185 15.3918C31.7903 15.3918 32.5814 16.177 32.5814 17.1419ZM5.39186 50.0074C4.87506 50.5195 4.03846 50.5184 3.52289 50.0086C3.27433 49.76 3.13788 49.4323 3.13788 49.0834C3.13788 48.7357 3.27433 48.4079 3.52289 48.1618L5.62743 46.0652L7.48944 47.9191L5.39186 50.0074ZM12.4222 58.1742C11.9054 58.6864 11.0677 58.6876 10.552 58.1755C10.3034 57.9269 10.167 57.5992 10.167 57.2503C10.167 56.9026 10.3034 56.5747 10.552 56.3287L12.6579 54.2309L13.5388 55.1072L14.5211 56.0849L12.4222 58.1742ZM20.0384 50.5861C20.0371 50.5872 20.036 50.5872 20.0348 50.5884L16.1742 54.4385L15.2933 53.5622L14.311 52.5845L18.168 48.745C18.168 48.745 18.168 48.745 18.168 48.7439C18.1693 48.7427 18.1703 48.7427 18.1716 48.7416C18.2591 48.6541 18.3139 48.5491 18.3676 48.4453C18.3828 48.415 18.4119 48.3893 18.4248 48.3578C18.461 48.268 18.4668 48.1712 18.4808 48.0766C18.4878 48.0229 18.5112 47.9728 18.5112 47.9179C18.5112 47.8396 18.4832 47.7639 18.4669 47.6868C18.4529 47.6168 18.4529 47.5456 18.426 47.478C18.3817 47.3684 18.3058 47.2716 18.2265 47.177C18.2044 47.1513 18.1962 47.1186 18.1717 47.0941C18.1717 47.0941 18.1717 47.0941 18.1705 47.0941C18.1693 47.093 18.1693 47.0906 18.1682 47.0895L14.6529 43.5894C14.6156 43.5521 14.5678 43.5369 14.5258 43.5055C14.464 43.4576 14.4045 43.4133 14.3356 43.3794C14.2692 43.3467 14.2015 43.3269 14.1315 43.3082C14.0568 43.2871 13.9845 43.2709 13.9063 43.265C13.8351 43.2603 13.7686 43.2673 13.6975 43.2755C13.6193 43.2848 13.5459 43.2953 13.47 43.3198C13.3965 43.3432 13.3312 43.3793 13.2636 43.4178C13.2204 43.4423 13.1714 43.4505 13.1305 43.4809L9.25136 46.3766L7.2808 44.4142L12.5286 39.1945L22.0674 48.5759L20.0384 50.5861ZM34.9545 35.2371C34.9207 35.2325 34.8891 35.2453 34.8554 35.243C34.7702 35.2384 34.6886 35.2442 34.6034 35.2582C34.5369 35.2698 34.4739 35.2827 34.4109 35.3048C34.3362 35.3305 34.2686 35.3655 34.1996 35.4075C34.1343 35.4471 34.0748 35.4891 34.0177 35.5416C33.9896 35.5661 33.9559 35.5778 33.9302 35.6057L23.6527 46.862L14.1851 37.5506L20.3825 31.3858C20.8387 30.9308 20.8411 30.1923 20.386 29.7349C20.1562 29.5051 19.8541 29.3919 19.5519 29.3931V29.392L14.6985 29.4212L14.7592 25.9048L21.5493 25.9632C24.3166 28.7936 28.176 30.5588 32.4461 30.5588C33.4027 30.5588 34.3361 30.4597 35.2449 30.2904C35.3324 30.3604 35.4186 30.4317 35.5284 30.476L40.7996 32.576L41.1332 34.235L41.5228 36.1716L34.9545 35.2371ZM43.7944 35.6268L43.1096 32.2189L46.2736 29.8563L47.102 30.9553L48.3445 32.605L43.7944 35.6268ZM52.0055 29.434L50.1726 31.1514L48.1356 28.447L49.9544 27.0529C50.2939 26.7916 50.7221 26.6854 51.1421 26.7402C51.5644 26.7997 51.9378 27.0202 52.1921 27.362C52.6659 28.0002 52.5853 28.8904 52.0055 29.434Z" fill="#212121"/>
</symbol>

<symbol id="phone" width="10" height="16" viewBox="0 0 10 16" xmlns="http://www.w3.org/2000/svg">
<path d="M8.5 0H1.5C0.672848 0 0 0.672848 0 1.5V14.5C0 15.3272 0.672848 16 1.5 16H8.5C9.32715 16 10 15.3272 10 14.5V1.5C10 0.672848 9.32715 0 8.5 0ZM1.5 1H8.5C8.77588 1 9 1.22412 9 1.5V12H1V1.5C1 1.22412 1.22412 1 1.5 1ZM8.5 15H1.5C1.22412 15 1 14.7759 1 14.5V13H9V14.5C9 14.7759 8.77588 15 8.5 15Z" fill="#757575"/>
</symbol>

<symbol width="16" height="12" viewBox="0 0 16 12" fill="none" xmlns="http://www.w3.org/2000/svg">
<path d="M14.5 0H1.50001C0.672854 0 0 0.672853 0 1.50001V10.5C0 11.3271 0.672854 12 1.50001 12H14.5C15.3271 12 16 11.3271 16 10.5V1.50001C16 0.672853 15.3271 0 14.5 0ZM14.5 0.999994C14.5679 0.999994 14.6325 1.01409 14.6916 1.0387L8 6.83838L1.30833 1.0387C1.36742 1.01412 1.43204 0.999994 1.49998 0.999994H14.5ZM14.5 11H1.50001C1.22414 11 0.999996 10.7759 0.999996 10.5V2.09521L7.67236 7.87792C7.76661 7.95944 7.8833 7.99999 8 7.99999C8.1167 7.99999 8.23339 7.95948 8.32764 7.87792L15 2.09521V10.5C15 10.7759 14.7759 11 14.5 11Z" fill="#757575"/>
</symbol>

<symbol id="instagram" width="20" height="20" viewBox="0 0 20 20" xmlns="http://www.w3.org/2000/svg">
<g clip-path="url(#clip0_68394_228)">
<path d="M19.9804 5.88005C19.9336 4.81738 19.7617 4.0868 19.5155 3.45374C19.2616 2.78176 18.8709 2.18014 18.359 1.68002C17.8589 1.1721 17.2533 0.777435 16.5891 0.527447C15.9524 0.281274 15.2256 0.109427 14.1629 0.0625732C13.0923 0.0117516 12.7524 0 10.0371 0C7.3217 0 6.98182 0.0117516 5.91518 0.0586052C4.8525 0.105459 4.12192 0.277459 3.48902 0.523479C2.81689 0.777435 2.21527 1.16814 1.71514 1.68002C1.20723 2.18014 0.812716 2.78573 0.562576 3.44992C0.316404 4.0868 0.144556 4.81341 0.0977027 5.87609C0.0468811 6.9467 0.0351295 7.28658 0.0351295 10.002C0.0351295 12.7173 0.0468811 13.0572 0.0937347 14.1239C0.140588 15.1865 0.312588 15.9171 0.55876 16.5502C0.812716 17.2221 1.20723 17.8238 1.71514 18.3239C2.21527 18.8318 2.82086 19.2265 3.48505 19.4765C4.12192 19.7226 4.84854 19.8945 5.91136 19.9413C6.97786 19.9883 7.31789 19.9999 10.0333 19.9999C12.7486 19.9999 13.0885 19.9883 14.1552 19.9413C15.2178 19.8945 15.9484 19.7226 16.5813 19.4765C17.9254 18.9568 18.9881 17.8941 19.5078 16.5502C19.7538 15.9133 19.9258 15.1865 19.9726 14.1239C20.0195 13.0572 20.0312 12.7173 20.0312 10.002C20.0312 7.28658 20.0273 6.9467 19.9804 5.88005ZM18.1794 14.0457C18.1363 15.0225 17.9723 15.5499 17.8355 15.9015C17.4995 16.7728 16.808 17.4643 15.9367 17.8004C15.585 17.9372 15.0538 18.1012 14.0808 18.1441C13.0259 18.1911 12.7096 18.2027 10.041 18.2027C7.37252 18.2027 7.05218 18.1911 6.0011 18.1441C5.02435 18.1012 4.4969 17.9372 4.14527 17.8004C3.71169 17.6402 3.31702 17.3862 2.99667 17.0541C2.66458 16.7298 2.41062 16.3391 2.25037 15.9055C2.11363 15.5539 1.94956 15.0225 1.90668 14.0497C1.85967 12.9948 1.84807 12.6783 1.84807 10.0097C1.84807 7.34122 1.85967 7.02087 1.90668 5.96995C1.94956 4.99319 2.11363 4.46575 2.25037 4.11412C2.41062 3.68038 2.66458 3.28586 3.00064 2.96536C3.3248 2.63327 3.7155 2.37931 4.14924 2.21921C4.50087 2.08247 5.03229 1.9184 6.00507 1.87537C7.05996 1.82851 7.37649 1.81676 10.0449 1.81676C12.7173 1.81676 13.0337 1.82851 14.0848 1.87537C15.0615 1.9184 15.589 2.08247 15.9406 2.21921C16.3742 2.37931 16.7689 2.63327 17.0892 2.96536C17.4213 3.28967 17.6753 3.68038 17.8355 4.11412C17.9723 4.46575 18.1363 4.99701 18.1794 5.96995C18.2262 7.02484 18.238 7.34122 18.238 10.0097C18.238 12.6783 18.2262 12.9908 18.1794 14.0457Z" />
<path d="M10.0371 4.86426C7.20069 4.86426 4.89937 7.16543 4.89937 10.002C4.89937 12.8385 7.20069 15.1397 10.0371 15.1397C12.8736 15.1397 15.1748 12.8385 15.1748 10.002C15.1748 7.16543 12.8736 4.86426 10.0371 4.86426ZM10.0371 13.3347C8.19698 13.3347 6.70438 11.8422 6.70438 10.002C6.70438 8.16172 8.19698 6.66927 10.0371 6.66927C11.8774 6.66927 13.3698 8.16172 13.3698 10.002C13.3698 11.8422 11.8774 13.3347 10.0371 13.3347Z" />
<path d="M16.5775 4.6611C16.5775 5.32346 16.0405 5.86052 15.3779 5.86052C14.7156 5.86052 14.1785 5.32346 14.1785 4.6611C14.1785 3.99858 14.7156 3.46167 15.3779 3.46167C16.0405 3.46167 16.5775 3.99858 16.5775 4.6611Z" />
</g>
<defs>
<clipPath id="clip0_68394_228">
<rect width="20" height="20"/>
</clipPath>
</defs>
</symbol>

<symbol id="twitter" width="20" height="18" viewBox="0 0 20 18" xmlns="http://www.w3.org/2000/svg">
<path d="M20 2.79875C19.2563 3.125 18.4637 3.34125 17.6375 3.44625C18.4875 2.93875 19.1363 2.14125 19.4412 1.18C18.6488 1.6525 17.7738 1.98625 16.8412 2.1725C16.0887 1.37125 15.0162 0.875 13.8462 0.875C11.5763 0.875 9.74875 2.7175 9.74875 4.97625C9.74875 5.30125 9.77625 5.61375 9.84375 5.91125C6.435 5.745 3.41875 4.11125 1.3925 1.6225C1.03875 2.23625 0.83125 2.93875 0.83125 3.695C0.83125 5.115 1.5625 6.37375 2.6525 7.1025C1.99375 7.09 1.3475 6.89875 0.8 6.5975C0.8 6.61 0.8 6.62625 0.8 6.6425C0.8 8.635 2.22125 10.29 4.085 10.6712C3.75125 10.7625 3.3875 10.8062 3.01 10.8062C2.7475 10.8062 2.4825 10.7913 2.23375 10.7362C2.765 12.36 4.2725 13.5538 6.065 13.5925C4.67 14.6838 2.89875 15.3412 0.98125 15.3412C0.645 15.3412 0.3225 15.3263 0 15.285C1.81625 16.4563 3.96875 17.125 6.29 17.125C13.835 17.125 17.96 10.875 17.96 5.4575C17.96 5.27625 17.9538 5.10125 17.945 4.9275C18.7588 4.35 19.4425 3.62875 20 2.79875Z"/>
</symbol>

<symbol id="facebook" width="11" height="20" viewBox="0 0 11 20" xmlns="http://www.w3.org/2000/svg">
<path d="M8.33083 3.32083H10.1567V0.140833C9.84167 0.0975 8.75833 0 7.49667 0C4.86416 0 3.06083 1.65583 3.06083 4.69917V7.5H0.15583V11.055H3.06083V20H6.6225V11.0558H9.41L9.8525 7.50083H6.62167V5.05167C6.6225 4.02417 6.89916 3.32083 8.33083 3.32083Z"/>
</symbol>

<symbol id="linkedin" width="20" height="20" viewBox="0 0 20 20" xmlns="http://www.w3.org/2000/svg">
<g clip-path="url(#clip0_68394_184)">
<path d="M19.995 20.0001V19.9993H20V12.6643C20 9.07593 19.2275 6.31177 15.0325 6.31177C13.0158 6.31177 11.6625 7.41843 11.11 8.4676H11.0517V6.64677H7.07417V19.9993H11.2158V13.3876C11.2158 11.6468 11.5458 9.96343 13.7017 9.96343C15.8258 9.96343 15.8575 11.9501 15.8575 13.4993V20.0001H19.995Z"/>
<path d="M0.330002 6.64746H4.47667V20H0.330002V6.64746Z"/>
<path d="M2.40167 0C1.07583 0 0 1.07583 0 2.40167C0 3.7275 1.07583 4.82583 2.40167 4.82583C3.7275 4.82583 4.80333 3.7275 4.80333 2.40167C4.8025 1.07583 3.72667 0 2.40167 0V0Z"/>
</g>
<defs>
<clipPath id="clip0_68394_184">
<rect width="20" height="20"/>
</clipPath>
</defs>
</symbol>

<symbol id="ya-co" width="45" height="50" viewBox="0 0 45 50" xmlns="http://www.w3.org/2000/svg">
<path d="M6 0L13.3076 6.91796H33.6924V26.2158L41 33.1338V0H6Z"/>
<path d="M0 6.62646V38.8137H34V26.0195L13.5231 6.63443L0 6.62646ZM27.5231 34.1055H5.38008V12.4579H6.9453V32.6397H27.5231V34.1055Z" />
<path d="M9.79102 44.7837L10.6089 43.0991H11.2925L10.1011 45.3452V46.6538H9.48096V45.3452L8.28711 43.0991H8.97314L9.79102 44.7837ZM13.3018 45.8262H11.9248L11.6367 46.6538H10.9946L12.3374 43.0991H12.8916L14.2368 46.6538H13.5923L13.3018 45.8262ZM12.0981 45.3281H13.1284L12.6133 43.8535L12.0981 45.3281ZM15.7358 45.6943C15.7358 45.5299 15.7806 45.3794 15.8701 45.2427C15.9596 45.1043 16.1362 44.9408 16.3999 44.752C16.2616 44.5778 16.1647 44.4297 16.1094 44.3076C16.0557 44.1855 16.0288 44.0675 16.0288 43.9536C16.0288 43.6753 16.1134 43.4556 16.2827 43.2944C16.452 43.1317 16.6799 43.0503 16.9663 43.0503C17.2251 43.0503 17.4367 43.1268 17.6011 43.2798C17.7671 43.4312 17.8501 43.6191 17.8501 43.8438C17.8501 43.9919 17.8127 44.1286 17.7378 44.2539C17.6629 44.3776 17.54 44.5013 17.3691 44.625L17.1274 44.8008L17.8135 45.6113C17.9128 45.416 17.9624 45.1987 17.9624 44.9595H18.4775C18.4775 45.3973 18.375 45.7562 18.1699 46.0361L18.6924 46.6538H18.0039L17.8037 46.417C17.5498 46.6074 17.2471 46.7026 16.8955 46.7026C16.5439 46.7026 16.2624 46.6099 16.0508 46.4243C15.8408 46.2371 15.7358 45.9938 15.7358 45.6943ZM16.9126 46.229C17.1128 46.229 17.3 46.1623 17.4741 46.0288L16.6978 45.1133L16.6221 45.167C16.4268 45.3151 16.3291 45.4844 16.3291 45.6748C16.3291 45.8392 16.382 45.9727 16.4878 46.0752C16.5936 46.1777 16.7352 46.229 16.9126 46.229ZM16.5854 43.939C16.5854 44.0757 16.6693 44.2474 16.8369 44.4541L17.1079 44.2686L17.1836 44.2075C17.2845 44.118 17.335 44.0033 17.335 43.8633C17.335 43.7705 17.3 43.6916 17.23 43.6265C17.16 43.5597 17.0713 43.5264 16.9639 43.5264C16.8483 43.5264 16.7563 43.5654 16.688 43.6436C16.6196 43.7217 16.5854 43.8201 16.5854 43.939ZM23.043 45.4966C23.0072 45.8758 22.8672 46.172 22.623 46.3853C22.3789 46.5968 22.0542 46.7026 21.6489 46.7026C21.3657 46.7026 21.1159 46.6359 20.8994 46.5024C20.6846 46.3674 20.5186 46.1761 20.4014 45.9287C20.2842 45.6813 20.2231 45.394 20.2183 45.0669V44.7349C20.2183 44.3996 20.2777 44.1042 20.3965 43.8486C20.5153 43.5931 20.6854 43.3962 20.9067 43.2578C21.1297 43.1195 21.3869 43.0503 21.6782 43.0503C22.0705 43.0503 22.3862 43.1569 22.6255 43.3701C22.8647 43.5833 23.0039 43.8844 23.043 44.2734H22.4277C22.3984 44.0179 22.3236 43.834 22.2031 43.7217C22.0843 43.6077 21.9093 43.5508 21.6782 43.5508C21.4097 43.5508 21.203 43.6493 21.0581 43.8462C20.9149 44.0415 20.8416 44.3288 20.8384 44.708V45.0229C20.8384 45.4071 20.9067 45.7 21.0435 45.9019C21.1818 46.1037 21.3836 46.2046 21.6489 46.2046C21.8914 46.2046 22.0737 46.1501 22.1958 46.041C22.3179 45.932 22.3952 45.7505 22.4277 45.4966H23.043ZM26.4341 44.9692C26.4341 45.3175 26.3739 45.6235 26.2534 45.8872C26.133 46.1493 25.9604 46.3511 25.7358 46.4927C25.5129 46.6326 25.2557 46.7026 24.9644 46.7026C24.6763 46.7026 24.4191 46.6326 24.1929 46.4927C23.9683 46.3511 23.7941 46.1501 23.6704 45.8896C23.5483 45.6292 23.4865 45.3289 23.4849 44.9888V44.7886C23.4849 44.4419 23.5459 44.1359 23.668 43.8706C23.7917 43.6053 23.965 43.4027 24.188 43.2627C24.4126 43.1211 24.6698 43.0503 24.9595 43.0503C25.2492 43.0503 25.5055 43.1203 25.7285 43.2603C25.9531 43.3986 26.1265 43.5988 26.2485 43.8608C26.3706 44.1213 26.4325 44.4248 26.4341 44.7715V44.9692ZM25.8164 44.7837C25.8164 44.3898 25.7415 44.0879 25.5918 43.8779C25.4437 43.668 25.2329 43.563 24.9595 43.563C24.6925 43.563 24.4834 43.668 24.332 43.8779C24.1823 44.0863 24.1058 44.3817 24.1025 44.7642V44.9692C24.1025 45.3599 24.1782 45.6618 24.3296 45.875C24.4826 46.0882 24.6942 46.1948 24.9644 46.1948C25.2378 46.1948 25.4478 46.0907 25.5942 45.8823C25.7424 45.674 25.8164 45.3696 25.8164 44.9692V44.7837Z"/>
</symbol>

<symbol id="company" width="40" height="52" viewBox="0 0 40 52" xmlns="http://www.w3.org/2000/svg">
<g clip-path="url(#clip0_68394_271)">
<path d="M16.977 2.93452H17.1136C17.3666 2.93452 17.6398 2.95995 17.9105 2.98284C19.1031 3.06695 20.2873 3.24551 21.4521 3.51685V0.653528C20.2528 0.352628 19.0297 0.157776 17.7966 0.0712015C17.3286 0.0356008 16.8303 0.0127146 16.3193 0H15.8917C13.4168 0.00930695 10.9526 0.327052 8.55554 0.945963C5.8253 1.62687 3.20466 2.69275 0.771576 4.11189V32.5086C3.1143 31.2357 5.60713 30.2643 8.19126 29.6173C10.2316 29.0967 12.3175 28.7765 14.4194 28.6612H14.5029C14.8546 28.6434 15.2062 28.6332 15.5679 28.6306V25.7216C12.8367 25.7567 10.1193 26.1178 7.47282 26.7972C6.49381 27.0515 5.5477 27.3261 4.65976 27.6313L3.64787 27.9746V5.83344L4.08046 5.62492C7.38168 4.05951 10.9522 3.14863 14.5965 2.94215C14.6268 2.93994 14.6573 2.93994 14.6876 2.94215C15.0898 2.92181 15.4946 2.91163 15.8917 2.91163H16.3269H16.3471C16.5571 2.91672 16.767 2.92181 16.977 2.93452Z"/>
<path d="M24.1108 5.93234C23.4455 5.93234 22.7878 5.90946 22.1528 5.86114C21.3939 5.8052 20.6147 5.71365 19.8761 5.58905C19.4258 5.51276 18.9831 5.42122 18.553 5.32204V33.3932C20.3737 33.844 22.2433 34.0644 24.1184 34.0493C26.5931 34.0393 29.0571 33.7224 31.4546 33.1059C34.1853 32.4241 36.8067 31.3583 39.2411 29.94V2.04932C36.8986 3.32153 34.4069 4.29372 31.8239 4.94315C29.3032 5.59059 26.7125 5.92283 24.1108 5.93234ZM35.3352 6.41804L36.3471 6.07729V28.226L35.9145 28.4346C34.2552 29.224 32.5224 29.8467 30.7412 30.2934C28.5782 30.8531 26.3545 31.1409 24.1209 31.1504C23.4531 31.1504 22.7903 31.1224 22.1477 31.0665L21.4546 31.0054V28.3176V8.22859L22.2616 8.28199C22.8485 8.32014 23.4556 8.33794 24.1159 8.33794C26.9514 8.32785 29.7749 7.96571 32.5221 7.25974C33.4657 7.01054 34.4043 6.73082 35.3352 6.41804Z"/>
<path d="M2.73716 42.2125C2.59169 42.0616 2.41632 41.9431 2.22239 41.8647C2.02847 41.7863 1.82032 41.7497 1.61144 41.7573C1.38882 41.7544 1.16784 41.7959 0.961298 41.8794C0.771932 41.9548 0.599797 42.0681 0.455353 42.2125C0.312481 42.3573 0.201322 42.5305 0.129018 42.7211C0.0497097 42.9208 0.010173 43.1342 0.012651 43.3492V47.1432C0.00360335 47.4106 0.0546187 47.6765 0.161905 47.9213C0.251463 48.1158 0.380755 48.2891 0.541363 48.4299C0.692984 48.5576 0.871009 48.6497 1.06249 48.6995C1.24697 48.7513 1.43759 48.7779 1.62914 48.7783C1.84044 48.7804 2.04956 48.7353 2.24134 48.6461C2.43098 48.5631 2.6028 48.4439 2.74728 48.2952C2.88817 48.1478 3.00055 47.9753 3.07868 47.7866C3.15976 47.5953 3.20108 47.3893 3.2001 47.1814V46.7567H2.20845V47.0949C2.2114 47.2104 2.19163 47.3253 2.15027 47.4331C2.11797 47.5139 2.0688 47.5867 2.00607 47.6467C1.94464 47.6963 1.87419 47.7335 1.79864 47.7561C1.73167 47.7784 1.66173 47.7904 1.5912 47.7917C1.50266 47.802 1.41299 47.7886 1.33125 47.7529C1.24951 47.7171 1.17861 47.6603 1.12573 47.5882C1.03225 47.4357 0.986426 47.2586 0.994184 47.0796V43.5424C0.988032 43.3463 1.02972 43.1516 1.11561 42.9754C1.16709 42.8953 1.23993 42.8314 1.32581 42.7909C1.41169 42.7505 1.50716 42.7351 1.60132 42.7465C1.68679 42.7435 1.77173 42.7613 1.84884 42.7985C1.92594 42.8357 1.99292 42.8912 2.04402 42.9601C2.15499 43.1058 2.21301 43.2853 2.20845 43.4687V43.7967H3.18998V43.4102C3.19198 43.1832 3.15076 42.9579 3.06856 42.7465C2.9953 42.5477 2.88254 42.3661 2.73716 42.2125Z"/>
<path d="M8.62889 42.169C8.31268 41.902 7.91359 41.7545 7.50063 41.752C7.29865 41.7528 7.09835 41.7889 6.90867 41.8588C6.7161 41.9278 6.53838 42.0331 6.38502 42.169C6.22073 42.3167 6.08965 42.4978 6.0005 42.7005C5.9006 42.9322 5.85143 43.1828 5.85631 43.4354V47.0743C5.84947 47.3302 5.8987 47.5846 6.0005 47.8193C6.09025 48.015 6.22149 48.1886 6.38502 48.3279C6.53662 48.4687 6.71465 48.5776 6.90867 48.6483C7.09835 48.7181 7.29865 48.7543 7.50063 48.7551C7.70266 48.7547 7.90304 48.7186 8.09259 48.6483C8.28992 48.5766 8.47192 48.4679 8.62889 48.3279C8.78707 48.186 8.91451 48.0129 9.00329 47.8193C9.10509 47.5846 9.15432 47.3302 9.14748 47.0743V43.4354C9.15236 43.1828 9.10319 42.9322 9.00329 42.7005C8.91502 42.5 8.78772 42.3193 8.62889 42.169ZM8.16595 47.0743C8.1743 47.1713 8.16092 47.2689 8.12677 47.36C8.09262 47.4511 8.03858 47.5333 7.96863 47.6007C7.83765 47.7105 7.67248 47.7707 7.5019 47.7707C7.33131 47.7707 7.16614 47.7105 7.03516 47.6007C6.96521 47.5333 6.91117 47.4511 6.87702 47.36C6.84287 47.2689 6.82948 47.1713 6.83784 47.0743V43.4354C6.82948 43.3384 6.84287 43.2407 6.87702 43.1496C6.91117 43.0585 6.96521 42.9763 7.03516 42.909C7.16614 42.7991 7.33131 42.739 7.5019 42.739C7.67248 42.739 7.83765 42.7991 7.96863 42.909C8.03858 42.9763 8.09262 43.0585 8.12677 43.1496C8.16092 43.2407 8.1743 43.3384 8.16595 43.4354V47.0743Z"/>
<path d="M16.3673 48.6993V41.8105H15.4136L14.1614 45.4571H14.1437L12.8814 41.8105H11.9378V48.6993H12.9218V44.5086H12.9395L13.9034 47.4711H14.3941L15.3656 44.5086H15.3833V48.6993H16.3673Z"/>
<path d="M21.958 42.2935C21.8065 42.1236 21.6152 41.9942 21.4015 41.9172C21.1712 41.8423 20.9301 41.8062 20.6881 41.8104H19.2259V48.6991H20.2074V46.0087H20.7134C21.0196 46.0227 21.3243 45.9579 21.5988 45.8206C21.8219 45.6967 22.008 45.5149 22.1376 45.2942C22.2512 45.111 22.3277 44.907 22.3628 44.6941C22.4014 44.4348 22.4192 44.1729 22.4159 43.9108C22.4254 43.58 22.3931 43.2494 22.3197 42.9267C22.2543 42.6884 22.1298 42.4705 21.958 42.2935ZM21.452 44.394C21.4478 44.5187 21.4167 44.641 21.361 44.7525C21.3049 44.8585 21.2161 44.9432 21.108 44.9941C20.9626 45.0591 20.804 45.0888 20.6451 45.0806H20.1973V42.7386H20.7032C20.8556 42.7311 21.0075 42.7607 21.146 42.825C21.2474 42.8832 21.328 42.9723 21.3762 43.0793C21.4298 43.2003 21.459 43.3308 21.4622 43.4633C21.4622 43.6082 21.4622 43.7608 21.4622 43.921C21.4622 44.0812 21.4723 44.2465 21.4622 44.394H21.452Z"/>
<path d="M26.6076 41.8105H25.8032L24.2853 48.6993H25.2669L25.5553 47.2193H26.8935L27.1819 48.6993H28.1634L26.6076 41.8105ZM25.702 46.281L26.1852 43.7838H26.2029L26.6835 46.281H25.702Z"/>
<path d="M32.9497 45.9606H32.932L31.4495 41.8105H30.506V48.6993H31.4875V44.5569H31.5077L33.0078 48.6993H33.9312V41.8105H32.9497V45.9606Z"/>
<path d="M38.9476 41.8105L38.1584 44.5493H38.1381L37.3489 41.8105H36.3091L37.6575 45.7877V48.6993H38.639V45.7877L39.9874 41.8105H38.9476Z"/>
<path d="M0 50.6447H0.473058V51.972H0.794333V50.6447H1.26486V50.3726H0V50.6447Z"/>
<path d="M3.97672 50.3726L3.35693 51.972H3.69845L3.82999 51.6084H4.46748L4.60409 51.972H4.95319L4.31823 50.3726H3.97672ZM3.92612 51.3389L4.14368 50.7464L4.36123 51.3389H3.92612Z"/>
<path d="M7.90793 51.3821H8.27727V51.5881C8.16941 51.6746 8.03576 51.722 7.89781 51.7229C7.8333 51.7265 7.76886 51.7145 7.70988 51.688C7.65091 51.6614 7.59911 51.6211 7.55883 51.5703C7.47402 51.4485 7.43217 51.3017 7.43993 51.1533C7.43993 50.7973 7.59424 50.6193 7.90034 50.6193C7.98091 50.6112 8.06168 50.6325 8.12804 50.6791C8.19439 50.7257 8.24194 50.7947 8.26209 50.8735L8.57831 50.8125C8.51001 50.4997 8.28486 50.3421 7.90034 50.3421C7.69468 50.3366 7.4947 50.4103 7.34127 50.5481C7.26069 50.6276 7.19834 50.7239 7.15858 50.8302C7.11882 50.9365 7.10261 51.0502 7.11107 51.1634C7.10175 51.3823 7.17493 51.5966 7.31598 51.7636C7.39434 51.8444 7.4892 51.9071 7.59401 51.9475C7.69883 51.9879 7.8111 52.0049 7.92311 51.9975C8.17338 52.0045 8.41652 51.9133 8.60108 51.7432V51.1126H7.90793V51.3821Z"/>
<path d="M11.9226 50.3726H11.5988V51.972H12.7195V51.7H11.9226V50.3726Z"/>
<path d="M15.3175 50.3726H14.9937V51.972H15.3175V50.3726Z"/>
<path d="M18.6365 51.4406L17.9813 50.3726H17.6676V51.972H17.9686V50.9269L18.6112 51.972H18.9325V50.3726H18.6365V51.4406Z"/>
<path d="M21.6367 51.2677H22.4336V50.9956H21.6367V50.6447H22.4943V50.3726H21.3129V51.972H22.5272V51.7H21.6367V51.2677Z"/>
<path d="M28.9122 51.0032H28.2823V50.3726H27.961V51.972H28.2823V51.2728H28.9122V51.972H29.2335V50.3726H28.9122V51.0032Z"/>
<path d="M31.9302 51.2677H32.7296V50.9956H31.9302V50.6447H32.7903V50.3726H31.6089V51.972H32.8207V51.7H31.9302V51.2677Z"/>
<path d="M36.0233 51.2679C36.3016 51.2246 36.4432 51.0771 36.4432 50.8228C36.4513 50.7548 36.441 50.6859 36.4134 50.6232C36.3858 50.5606 36.3419 50.5065 36.2864 50.4668C36.1415 50.3941 35.9799 50.3616 35.8184 50.3727H35.1404V51.9722H35.4617V51.3035H35.5249C35.5934 51.2992 35.6619 51.3114 35.7248 51.3391C35.7717 51.368 35.8108 51.4082 35.8386 51.456L36.1877 51.9646H36.5722L36.3774 51.6518C36.2913 51.4974 36.17 51.3658 36.0233 51.2679ZM35.6995 51.0466H35.4617V50.6448H35.7147C35.8249 50.6359 35.9358 50.6489 36.041 50.683C36.0644 50.7036 36.0828 50.7293 36.095 50.7581C36.1072 50.7869 36.1127 50.8181 36.1113 50.8494C36.1098 50.8807 36.1014 50.9112 36.0866 50.9387C36.0718 50.9663 36.051 50.9901 36.0258 51.0085C35.9202 51.0409 35.8097 51.0538 35.6995 51.0466Z"/>
<path d="M39.1095 51.2677H39.9064V50.9956H39.1095V50.6447H39.9696V50.3726H38.7857V51.972H40V51.7H39.1095V51.2677Z"/>
</g>
<defs>
<clipPath id="clip0_68394_271">
<rect width="40" height="52"/>
</clipPath>
</defs>
</symbol>

<symbol id="company-2" width="41" height="43" viewBox="0 0 41 43" xmlns="http://www.w3.org/2000/svg">
<path d="M6.34547 41.7948C6.36049 41.7952 6.37527 41.7985 6.38896 41.8043C6.40265 41.8102 6.41497 41.8187 6.42521 41.8291L6.63098 42.0448C6.47126 42.2194 6.27385 42.359 6.05225 42.4541C5.79275 42.5579 5.51308 42.6081 5.23174 42.6012C4.96736 42.6064 4.7047 42.5597 4.4601 42.4639C4.23945 42.376 4.04121 42.244 3.87879 42.0767C3.71303 41.9032 3.58535 41.6999 3.50326 41.4787C3.41336 41.2321 3.36898 40.9725 3.37208 40.7115C3.36843 40.4488 3.41641 40.1878 3.51355 39.9419C3.6034 39.7193 3.73894 39.516 3.91223 39.3439C4.08787 39.1751 4.29797 39.0425 4.52954 38.9542C4.78288 38.8606 5.05265 38.814 5.32433 38.8169C5.5767 38.8111 5.82773 38.8536 6.06254 38.9419C6.26625 39.0262 6.4533 39.143 6.61555 39.2875L6.44321 39.5179C6.43131 39.5341 6.41651 39.5482 6.39949 39.5596C6.37915 39.5728 6.35458 39.5789 6.33004 39.5767C6.30334 39.575 6.27761 39.5665 6.25545 39.5522L6.16285 39.4909L6.03424 39.4125C5.97873 39.3834 5.92114 39.358 5.86191 39.3365C5.78562 39.3105 5.70738 39.29 5.62785 39.2753C5.52691 39.2575 5.42439 39.2493 5.32176 39.2508C5.12612 39.2484 4.93197 39.2834 4.75075 39.3537C4.58174 39.4188 4.42918 39.5174 4.3032 39.6429C4.17494 39.7764 4.0761 39.9331 4.01254 40.1037C3.9401 40.2988 3.9044 40.5046 3.90709 40.7115C3.904 40.9217 3.93969 41.1307 4.01254 41.3291C4.07531 41.4983 4.17231 41.654 4.29805 41.7875C4.41586 41.9119 4.56188 42.0092 4.72503 42.0718C4.89292 42.1381 5.07314 42.1715 5.25489 42.1698C5.35987 42.1714 5.46481 42.1648 5.56869 42.1502C5.7383 42.1305 5.901 42.0743 6.04453 41.986C6.11653 41.9407 6.18449 41.8899 6.24773 41.834C6.27417 41.81 6.30895 41.7961 6.34547 41.7948Z"/>
<path d="M12.2871 40.7108C12.2903 40.9709 12.2432 41.2292 12.1482 41.473C12.0644 41.6941 11.9323 41.8958 11.7608 42.0648C11.5892 42.2338 11.382 42.3662 11.1528 42.4533C10.6492 42.6363 10.0925 42.6363 9.58896 42.4533C9.36125 42.3648 9.15539 42.2321 8.98452 42.0636C8.81305 41.8916 8.68004 41.6882 8.59356 41.4657C8.40827 40.972 8.40827 40.4325 8.59356 39.9388C8.6813 39.7162 8.81414 39.5122 8.98452 39.3384C9.15685 39.1752 9.3626 39.0476 9.58896 38.9635C10.0919 38.7772 10.6499 38.7772 11.1528 38.9635C11.3813 39.0519 11.588 39.1846 11.7598 39.3531C11.9292 39.5235 12.0612 39.7243 12.1482 39.9437C12.2435 40.1892 12.2906 40.4492 12.2871 40.7108ZM11.747 40.7108C11.751 40.5028 11.718 40.2956 11.6492 40.0981C11.5916 39.929 11.4979 39.7729 11.374 39.6399C11.2534 39.5139 11.1049 39.4152 10.9393 39.3507C10.5734 39.2167 10.1684 39.2167 9.80245 39.3507C9.63684 39.4152 9.48836 39.5139 9.36776 39.6399C9.24215 39.7722 9.14747 39.9284 9.08997 40.0981C8.9591 40.4971 8.9591 40.9246 9.08997 41.3235C9.14803 41.4931 9.24265 41.6492 9.36776 41.7818C9.48851 41.907 9.637 42.0049 9.80245 42.0685C10.169 42.1991 10.5728 42.1991 10.9393 42.0685C11.1048 42.0049 11.2533 41.907 11.374 41.7818C11.4974 41.6484 11.591 41.4925 11.6492 41.3235C11.7183 41.1261 11.7513 40.9189 11.747 40.7108Z"/>
<path d="M16.3408 41.3535L16.3948 41.4907C16.4154 41.4417 16.4334 41.3976 16.454 41.3535C16.4736 41.3074 16.4959 41.2624 16.5209 41.2187L17.8352 38.9422C17.861 38.903 17.8841 38.8785 17.9098 38.8712C17.9448 38.861 17.9814 38.8569 18.0179 38.8589H18.4062V42.5615H17.9458V39.8391C17.9458 39.8048 17.9458 39.7656 17.9458 39.7239C17.9434 39.6815 17.9434 39.6389 17.9458 39.5965L16.6238 41.9048C16.607 41.9394 16.5801 41.9686 16.5464 41.989C16.5126 42.0095 16.4734 42.0202 16.4334 42.02H16.3588C16.3188 42.0205 16.2794 42.0099 16.2456 41.9894C16.2118 41.969 16.185 41.9396 16.1685 41.9048L14.8078 39.5818C14.8078 39.6259 14.8078 39.67 14.8078 39.7141C14.8078 39.7582 14.8078 39.7974 14.8078 39.8317V42.5542H14.3629V38.8589H14.7512C14.7877 38.8569 14.8243 38.861 14.8593 38.8712C14.8912 38.8862 14.9166 38.9113 14.9313 38.9422L16.274 41.2211C16.3003 41.2633 16.3227 41.3075 16.3408 41.3535Z"/>
<path d="M21.2871 41.1695V42.5564H20.7726V38.8588H21.9198C22.1364 38.8548 22.3523 38.8821 22.5603 38.9396C22.7268 38.9846 22.8812 39.0631 23.013 39.17C23.1272 39.2701 23.2153 39.3943 23.2702 39.5326C23.3309 39.6835 23.3606 39.844 23.3576 40.0056C23.3599 40.1677 23.3275 40.3286 23.2625 40.4785C23.2006 40.6203 23.1056 40.7469 22.9847 40.8485C22.8527 40.9598 22.6976 41.0433 22.5294 41.0935C22.3292 41.1545 22.1197 41.1835 21.9095 41.1793L21.2871 41.1695ZM21.2871 40.7725H21.9095C22.0447 40.7742 22.1793 40.7552 22.3082 40.7162C22.4145 40.6821 22.5125 40.6279 22.5963 40.5569C22.6736 40.4891 22.7334 40.4052 22.7712 40.3118C22.8133 40.2131 22.8343 40.1073 22.8329 40.0006C22.8389 39.8979 22.8213 39.7951 22.7813 39.6994C22.7413 39.6038 22.68 39.5176 22.6014 39.4469C22.4049 39.3007 22.1581 39.2299 21.9095 39.2484H21.2871V40.7725Z"/>
<path d="M28.201 42.5614H27.7946C27.7538 42.5629 27.7138 42.5508 27.6814 42.5271C27.6522 42.504 27.6293 42.4746 27.6145 42.4413L27.2647 41.5468H25.508L25.1453 42.4413C25.132 42.474 25.1098 42.5028 25.081 42.5246C25.0483 42.5497 25.0072 42.5628 24.9652 42.5614H24.5588L26.1021 38.8584H26.6371L28.201 42.5614ZM25.6546 41.1866H27.1053L26.4931 39.6794C26.4463 39.566 26.4076 39.4497 26.3773 39.3314L26.3182 39.525C26.3002 39.5838 26.2796 39.6377 26.2616 39.6818L25.6546 41.1866Z"/>
<path d="M30.4233 38.8756C30.4541 38.8917 30.4805 38.9143 30.5005 38.9418L32.7511 41.7331C32.7511 41.689 32.7511 41.6449 32.7511 41.6032C32.7511 41.5616 32.7511 41.5199 32.7511 41.4807V38.8585H33.2115V42.5614H32.9543C32.9178 42.5625 32.8816 42.5549 32.8489 42.5394C32.8171 42.5217 32.7892 42.4984 32.7666 42.4708L30.5185 39.6819C30.521 39.7243 30.521 39.7669 30.5185 39.8093C30.5185 39.851 30.5185 39.8878 30.5185 39.9221V42.5614H30.0581V38.8585H30.3308C30.3626 38.8576 30.3942 38.8635 30.4233 38.8756Z"/>
<path d="M37.0029 41.0887V42.5591H36.4884V41.0887L35.066 38.8586H35.5265C35.5661 38.8564 35.6053 38.8677 35.6371 38.8905C35.6651 38.9142 35.6886 38.9424 35.7065 38.9738L36.5965 40.4123C36.6325 40.4736 36.6634 40.5299 36.6891 40.5839C36.7148 40.6378 36.7354 40.6892 36.7534 40.7407L36.8203 40.5814C36.8452 40.5232 36.8744 40.4667 36.9077 40.4123L37.7848 38.964C37.8033 38.9351 37.8258 38.9087 37.8517 38.8856C37.8822 38.8602 37.9218 38.847 37.9623 38.8488H38.4279L37.0029 41.0887Z"/>
<path d="M16.0862 32.6443C16.31 32.6712 16.5363 32.6933 16.7652 32.7129C20.2358 31.2337 23.1718 28.8127 25.2062 25.7526C27.2406 22.6924 28.2832 19.1289 28.2036 15.5073L24.3788 11.8633C25.1565 15.7191 24.7927 19.705 23.3282 23.3751C21.8636 27.0452 19.3561 30.2546 16.0862 32.6443Z"/>
<path d="M14.7204 32.4748L14.8233 32.4944C18.3175 30.1132 20.9816 26.788 22.4709 22.9488C23.9603 19.1097 24.2065 14.9331 23.1776 10.9592L17.7298 5.76904C19.9333 10.0353 20.8202 14.8098 20.2875 19.5374C19.7547 24.265 17.8242 28.7514 14.7204 32.4748Z"/>
<path d="M33.1961 19.7861C32.2706 23.7654 30.0227 27.3541 26.7863 30.0196C25.8411 30.8023 24.8216 31.4996 23.7409 32.1025C26.3763 31.3646 28.7985 30.0598 30.8209 28.289C32.8433 26.5181 34.4119 24.3284 35.4056 21.8887L33.1961 19.7861Z"/>
<path d="M32.3293 19.2002L29.1835 16.2031C29.1234 19.6201 28.1038 22.9594 26.2307 25.8739C24.3576 28.7885 21.6994 31.1718 18.5323 32.7764H18.5477C19.2535 32.7761 19.9586 32.736 20.6595 32.6563C23.6193 31.5053 26.2339 29.6742 28.2702 27.3262C30.3065 24.9782 31.701 22.1865 32.3293 19.2002Z"/>
<path d="M15.1757 3.5803L11.4229 0C8.06808 1.23513 5.18278 3.40643 3.14464 6.22973C1.1065 9.05304 0.0104686 12.3968 0 15.8234H0C0.0125737 19.6097 1.3502 23.2838 3.80116 26.2643C6.25213 29.2448 9.67642 31.3614 13.5321 32.2791C16.974 28.2838 18.9892 23.347 19.2847 18.186C19.5803 13.025 18.1409 7.90862 15.1757 3.5803Z"/>
<path d="M41 18.6492C40.9864 14.157 39.1073 9.85247 35.7732 6.67598C32.4391 3.49949 27.921 1.70923 23.2059 1.6963C21.0271 1.69415 18.8668 2.0772 16.8347 2.826L39.8117 24.7168C40.5984 22.7817 41.0014 20.7244 41 18.6492Z"/>
</symbol>

<symbol id="foster-peters" width="80" height="43" viewBox="0 0 80 43" xmlns="http://www.w3.org/2000/svg">
<path d="M12.402 12.8306H12.3993C10.1369 12.8306 8.30299 14.6177 8.30299 16.8223V16.8249C8.30299 19.0295 10.1369 20.8167 12.3993 20.8167H12.402C14.6643 20.8167 16.4982 19.0295 16.4982 16.8249V16.8223C16.4982 14.6177 14.6643 12.8306 12.402 12.8306Z"/>
<path d="M42.6367 11.5545C42.6303 8.49242 41.3794 5.55752 39.1578 3.39207C36.9362 1.22661 33.9249 0.00695286 30.7827 0V0C27.6396 0.00556265 24.6268 1.22461 22.404 3.39022C20.1813 5.55582 18.9297 8.49151 18.9232 11.5545V28.4402C18.9232 28.4402 42.634 25.8667 42.6367 11.5571V11.5545Z"/>
<path d="M-8.39233e-05 33.982C0.00561511 36.1127 0.876472 38.1545 2.42219 39.6613C3.96791 41.1681 6.06282 42.0174 8.24914 42.0237C10.435 42.0174 12.5295 41.1685 14.0751 39.6622C15.6208 38.156 16.492 36.1148 16.4984 33.9847V22.2354C16.4984 22.2354 -8.39233e-05 24.0274 -8.39233e-05 33.982ZM8.24914 36.0872C7.8219 36.0872 7.40425 35.9637 7.04901 35.7324C6.69376 35.5011 6.41689 35.1723 6.25339 34.7876C6.08989 34.403 6.04711 33.9797 6.13046 33.5713C6.21381 33.163 6.41955 32.7879 6.72166 32.4935C7.02377 32.1991 7.40868 31.9986 7.82771 31.9173C8.24675 31.8361 8.68109 31.8778 9.07581 32.0371C9.47054 32.1965 9.80791 32.4663 10.0453 32.8125C10.2826 33.1587 10.4093 33.5657 10.4093 33.982C10.4104 34.2592 10.3553 34.5337 10.2472 34.7901C10.1391 35.0464 9.9802 35.2794 9.7795 35.4757C9.5788 35.672 9.3403 35.8278 9.07769 35.9341C8.81507 36.0404 8.53351 36.0951 8.24914 36.0951V36.0872Z"/>
<path d="M25.0891 34.7812H23.4016V36.5244H22.5227V32.2588H25.3V32.9707H23.4016V34.0723H25.0891V34.7812ZM29.3137 34.4883C29.3137 34.9082 29.2395 35.2764 29.091 35.5928C28.9426 35.9092 28.7297 36.1533 28.4524 36.3252C28.177 36.4971 27.8606 36.583 27.5031 36.583C27.1496 36.583 26.8342 36.498 26.5569 36.3281C26.2795 36.1582 26.0647 35.916 25.9123 35.6016C25.76 35.2852 25.6828 34.9219 25.6809 34.5117V34.3008C25.6809 33.8809 25.7561 33.5117 25.9065 33.1934C26.0588 32.873 26.2727 32.6279 26.5481 32.458C26.8254 32.2861 27.1418 32.2002 27.4973 32.2002C27.8528 32.2002 28.1682 32.2861 28.4436 32.458C28.7209 32.6279 28.9348 32.873 29.0852 33.1934C29.2375 33.5117 29.3137 33.8799 29.3137 34.2979V34.4883ZM28.4231 34.2949C28.4231 33.8477 28.343 33.5078 28.1828 33.2754C28.0227 33.043 27.7942 32.9268 27.4973 32.9268C27.2024 32.9268 26.9748 33.042 26.8147 33.2725C26.6545 33.501 26.5735 33.8369 26.5715 34.2803V34.4883C26.5715 34.9238 26.6516 35.2617 26.8117 35.502C26.9719 35.7422 27.2024 35.8623 27.5031 35.8623C27.7981 35.8623 28.0246 35.7471 28.1828 35.5166C28.341 35.2842 28.4211 34.9463 28.4231 34.5029V34.2949ZM32.1643 35.4053C32.1643 35.2393 32.1057 35.1123 31.9885 35.0244C31.8713 34.9346 31.6604 34.8408 31.3557 34.7432C31.051 34.6436 30.8098 34.5459 30.632 34.4502C30.1477 34.1885 29.9055 33.8359 29.9055 33.3926C29.9055 33.1621 29.9699 32.957 30.0988 32.7773C30.2297 32.5957 30.4162 32.4541 30.6584 32.3525C30.9026 32.251 31.176 32.2002 31.4787 32.2002C31.7834 32.2002 32.0549 32.2559 32.2932 32.3672C32.5315 32.4766 32.716 32.6318 32.8469 32.833C32.9797 33.0342 33.0461 33.2627 33.0461 33.5186H32.1672C32.1672 33.3232 32.1057 33.1719 31.9826 33.0645C31.8596 32.9551 31.6867 32.9004 31.4641 32.9004C31.2492 32.9004 31.0822 32.9463 30.9631 33.0381C30.844 33.1279 30.7844 33.2471 30.7844 33.3955C30.7844 33.5342 30.8537 33.6504 30.9924 33.7441C31.133 33.8379 31.3391 33.9258 31.6106 34.0078C32.1106 34.1582 32.4748 34.3447 32.7033 34.5674C32.9319 34.79 33.0461 35.0674 33.0461 35.3994C33.0461 35.7686 32.9065 36.0586 32.6272 36.2695C32.3479 36.4785 31.9719 36.583 31.4992 36.583C31.1711 36.583 30.8723 36.5234 30.6028 36.4043C30.3332 36.2832 30.1272 36.1182 29.9846 35.9092C29.844 35.7002 29.7737 35.458 29.7737 35.1826H30.6555C30.6555 35.6533 30.9367 35.8887 31.4992 35.8887C31.7082 35.8887 31.8713 35.8467 31.9885 35.7627C32.1057 35.6768 32.1643 35.5576 32.1643 35.4053ZM36.8547 32.9707H35.5481V36.5244H34.6692V32.9707H33.3801V32.2588H36.8547V32.9707ZM39.925 34.6758H38.2375V35.8184H40.218V36.5244H37.3586V32.2588H40.2121V32.9707H38.2375V33.9873H39.925V34.6758ZM42.3127 34.9629H41.6125V36.5244H40.7336V32.2588H42.3186C42.8225 32.2588 43.2112 32.3711 43.4846 32.5957C43.758 32.8203 43.8947 33.1377 43.8947 33.5479C43.8947 33.8389 43.8313 34.082 43.7043 34.2773C43.5793 34.4707 43.3889 34.625 43.133 34.7402L44.0559 36.4834V36.5244H43.1125L42.3127 34.9629ZM41.6125 34.251H42.3215C42.5422 34.251 42.7131 34.1953 42.8342 34.084C42.9553 33.9707 43.0158 33.8154 43.0158 33.6182C43.0158 33.417 42.9582 33.2588 42.843 33.1436C42.7297 33.0283 42.5549 32.9707 42.3186 32.9707H41.6125V34.251ZM46.9387 35.0215V36.5244H46.0598V32.2588H47.7238C48.0442 32.2588 48.3254 32.3174 48.5676 32.4346C48.8117 32.5518 48.9992 32.7188 49.1301 32.9355C49.261 33.1504 49.3264 33.3955 49.3264 33.6709C49.3264 34.0889 49.1828 34.4189 48.8957 34.6611C48.6106 34.9014 48.2151 35.0215 47.7092 35.0215H46.9387ZM46.9387 34.3096H47.7238C47.9563 34.3096 48.133 34.2549 48.2541 34.1455C48.3772 34.0361 48.4387 33.8799 48.4387 33.6768C48.4387 33.4678 48.3772 33.2988 48.2541 33.1699C48.1311 33.041 47.9612 32.9746 47.7444 32.9707H46.9387V34.3096ZM52.4992 34.6758H50.8117V35.8184H52.7922V36.5244H49.9328V32.2588H52.7863V32.9707H50.8117V33.9873H52.4992V34.6758ZM56.5774 32.9707H55.2707V36.5244H54.3918V32.9707H53.1028V32.2588H56.5774V32.9707ZM59.6477 34.6758H57.9602V35.8184H59.9406V36.5244H57.0813V32.2588H59.9348V32.9707H57.9602V33.9873H59.6477V34.6758ZM62.0354 34.9629H61.3352V36.5244H60.4563V32.2588H62.0412C62.5451 32.2588 62.9338 32.3711 63.2072 32.5957C63.4807 32.8203 63.6174 33.1377 63.6174 33.5479C63.6174 33.8389 63.5539 34.082 63.427 34.2773C63.302 34.4707 63.1115 34.625 62.8557 34.7402L63.7785 36.4834V36.5244H62.8352L62.0354 34.9629ZM61.3352 34.251H62.0442C62.2649 34.251 62.4358 34.1953 62.5569 34.084C62.6779 33.9707 62.7385 33.8154 62.7385 33.6182C62.7385 33.417 62.6809 33.2588 62.5656 33.1436C62.4524 33.0283 62.2776 32.9707 62.0412 32.9707H61.3352V34.251ZM66.5002 35.4053C66.5002 35.2393 66.4416 35.1123 66.3244 35.0244C66.2072 34.9346 65.9963 34.8408 65.6916 34.7432C65.3869 34.6436 65.1457 34.5459 64.968 34.4502C64.4836 34.1885 64.2414 33.8359 64.2414 33.3926C64.2414 33.1621 64.3059 32.957 64.4348 32.7773C64.5656 32.5957 64.7522 32.4541 64.9944 32.3525C65.2385 32.251 65.5119 32.2002 65.8147 32.2002C66.1194 32.2002 66.3908 32.2559 66.6291 32.3672C66.8674 32.4766 67.052 32.6318 67.1828 32.833C67.3156 33.0342 67.382 33.2627 67.382 33.5186H66.5031C66.5031 33.3232 66.4416 33.1719 66.3186 33.0645C66.1955 32.9551 66.0227 32.9004 65.8 32.9004C65.5852 32.9004 65.4182 32.9463 65.299 33.0381C65.1799 33.1279 65.1203 33.2471 65.1203 33.3955C65.1203 33.5342 65.1897 33.6504 65.3283 33.7441C65.469 33.8379 65.675 33.9258 65.9465 34.0078C66.4465 34.1582 66.8108 34.3447 67.0393 34.5674C67.2678 34.79 67.382 35.0674 67.382 35.3994C67.382 35.7686 67.2424 36.0586 66.9631 36.2695C66.6838 36.4785 66.3078 36.583 65.8352 36.583C65.507 36.583 65.2082 36.5234 64.9387 36.4043C64.6692 36.2832 64.4631 36.1182 64.3205 35.9092C64.1799 35.7002 64.1096 35.458 64.1096 35.1826H64.9914C64.9914 35.6533 65.2727 35.8887 65.8352 35.8887C66.0442 35.8887 66.2072 35.8467 66.3244 35.7627C66.4416 35.6768 66.5002 35.5576 66.5002 35.4053Z"/>
</symbol>

<symbol id="brand"  width="59" height="47" viewBox="0 0 59 47" xmlns="http://www.w3.org/2000/svg">
<g clip-path="url(#clip0_68394_323)">
<path d="M4.48764 39.2777C4.71752 39.5633 4.83998 39.9211 4.83356 40.2883C4.84529 40.5278 4.8032 40.7669 4.71042 40.9879C4.61763 41.2089 4.47652 41.4061 4.29754 41.5649C3.85095 41.9036 3.29769 42.0691 2.73933 42.0311H0V35.6262H2.68323C3.21289 35.5908 3.73833 35.7412 4.16977 36.0517C4.34305 36.1973 4.48026 36.3814 4.57058 36.5893C4.6609 36.7973 4.70185 37.0235 4.69021 37.2501C4.70595 37.6034 4.59543 37.9508 4.37857 38.2295C4.17037 38.4839 3.88265 38.6604 3.56206 38.7301C3.92548 38.7967 4.25352 38.9907 4.48764 39.2777ZM1.27461 38.3108H2.42146C2.6821 38.3302 2.94097 38.2546 3.1507 38.098C3.23681 38.0197 3.3038 37.9225 3.34649 37.814C3.38918 37.7055 3.40643 37.5885 3.39689 37.4722C3.40499 37.3564 3.38738 37.2402 3.34535 37.1319C3.30332 37.0237 3.2379 36.9262 3.15381 36.8465C2.93781 36.6854 2.6709 36.6087 2.40276 36.6306H1.27461V38.3108ZM3.26289 40.767C3.35493 40.6868 3.42729 40.5864 3.47432 40.4735C3.52134 40.3606 3.54178 40.2383 3.53402 40.1162C3.54104 39.9927 3.51967 39.8692 3.47158 39.7552C3.42349 39.6413 3.34995 39.54 3.25666 39.4591C3.03228 39.2921 2.75632 39.2101 2.47755 39.2276H1.27461V40.9892H2.49313C2.7674 41.0051 3.03889 40.9267 3.26289 40.767Z"/>
<path d="M9.97254 42.0314L8.47978 39.5283H7.91882V42.0314H6.63486V35.6265H9.06566C9.67838 35.5835 10.2841 35.7784 10.7579 36.1709C11.0977 36.5185 11.3026 36.9766 11.3358 37.4625C11.3689 37.9484 11.2281 38.4302 10.9386 38.8211C10.6387 39.1661 10.2291 39.3961 9.77932 39.4719L11.3687 42.0314H9.97254ZM7.91882 38.6553H8.96905C9.69829 38.6553 10.0629 38.332 10.0629 37.6853C10.0704 37.5532 10.0504 37.4211 10.0042 37.2972C9.95809 37.1733 9.88681 37.0604 9.7949 36.9656C9.56445 36.7732 9.26766 36.6799 8.96905 36.7059H7.90636L7.91882 38.6553Z"/>
<path d="M16.9907 40.7421H14.4321L13.9803 42.0312H12.634L14.9838 35.6982H16.4391L18.7795 42.0312H17.4333L16.9907 40.7421ZM16.6479 39.7721L15.713 37.0687L14.7781 39.7721H16.6479Z"/>
<path d="M25.7759 42.0309H24.5013L21.6435 37.6754V42.0309H20.372V35.626H21.6435L24.5013 40.0065V35.626H25.7759V42.0309Z"/>
<path d="M33.0496 40.4981C32.7861 40.9817 32.3845 41.375 31.8965 41.6276C31.3417 41.909 30.7259 42.0477 30.1046 42.0313H27.8358V35.6263H30.1046C30.7249 35.61 31.3398 35.7453 31.8965 36.0206C32.3844 36.2674 32.7864 36.6569 33.0496 37.1376C33.3119 37.6585 33.4486 38.2341 33.4486 38.8178C33.4486 39.4016 33.3119 39.9772 33.0496 40.4981ZM31.5911 40.3448C31.9549 39.9193 32.1549 39.377 32.1549 38.8163C32.1549 38.2555 31.9549 37.7133 31.5911 37.2878C31.1514 36.9024 30.578 36.7067 29.9955 36.7433H29.1104V40.8892H29.9955C30.578 40.9258 31.1514 40.7302 31.5911 40.3448Z"/>
<path d="M17.7885 0C17.7885 0 34.24 6.236 33.891 15.2599V30.5229C33.891 30.5229 17.4519 24.2838 17.7947 15.2599L17.7885 0Z"/>
<path d="M48.5475 26.9495C51.6545 24.8027 55.2484 23.4729 59 23.0821V18.3042C54.6773 19.9769 51.0103 23.0099 48.5475 26.9495Z"/>
<path d="M46.6808 28.3889C49.2239 23.2477 53.6325 19.2804 59 17.303V3.53564C59 3.53564 35.5708 12.4187 36.0663 25.2693V46.9999C36.0663 46.9999 37.1103 46.6025 38.7526 45.8578C38.7526 45.1632 38.7526 44.4623 38.8274 43.7583C39.3123 37.7925 42.1371 32.2641 46.6808 28.3889Z"/>
<path d="M44.4526 36.4616C44.5756 34.9545 44.8502 33.4638 45.2722 32.0122C42.443 35.3588 40.7297 39.5116 40.3732 43.8866C40.3389 44.2996 40.3202 44.7126 40.3109 45.1382C41.6416 44.4967 43.1904 43.6957 44.8172 42.7539C44.402 40.684 44.2793 38.5658 44.4526 36.4616Z"/>
<path d="M45.3844 36.5398C45.2284 38.4436 45.3259 40.3597 45.6742 42.2377C52.0753 38.3922 59.268 32.4503 58.9907 25.2693V24.6436C54.4173 25.1573 50.1385 27.1646 46.8117 30.357C46.0328 32.3354 45.5517 34.4192 45.3844 36.5398Z"/>
</g>
<defs>
<clipPath id="clip0_68394_323">
<rect width="59" height="47"/>
</clipPath>
</defs>
</symbol>

<symbol id="company-3" width="89" height="46" viewBox="0 0 89 46" xmlns="http://www.w3.org/2000/svg">
<path d="M44.7405 21.3533C44.3226 20.7432 44.1226 20.022 44.1701 19.2962V16.3135C44.1701 15.3992 44.3592 14.7044 44.7373 14.2291C45.1155 13.7537 45.7651 13.517 46.686 13.5191C47.5513 13.5191 48.1656 13.7213 48.5288 14.1259C48.925 14.6421 49.1178 15.2733 49.0736 15.91V16.6109H47.5256V15.9009C47.5311 15.6685 47.5161 15.4361 47.4808 15.2061C47.4585 15.0488 47.3806 14.9033 47.2596 14.7934C47.1007 14.675 46.9004 14.6175 46.6988 14.6326C46.4867 14.6176 46.2764 14.6782 46.1091 14.8025C45.9742 14.9243 45.8844 15.0838 45.8527 15.2576C45.8083 15.5011 45.7879 15.7479 45.7918 15.995V19.6147C45.7674 19.964 45.8357 20.3134 45.9905 20.6312C46.0675 20.7387 46.1744 20.824 46.2994 20.8775C46.4244 20.9311 46.5626 20.9508 46.6988 20.9346C46.8971 20.9501 47.0939 20.8912 47.2468 20.7708C47.373 20.6523 47.4541 20.4976 47.4776 20.3308C47.5137 20.0907 47.5298 19.8482 47.5256 19.6056V18.8714H49.0736V19.5419C49.1171 20.2056 48.929 20.8644 48.5384 21.4171C48.1827 21.86 47.5769 22.0815 46.686 22.0815C45.795 22.0815 45.1219 21.8449 44.7405 21.3533Z"/>
<path d="M51.1857 21.3837C50.7947 20.9194 50.5992 20.2428 50.5992 19.3477V16.2104C50.5992 15.3244 50.7947 14.6538 51.1857 14.1987C51.5767 13.7436 52.2305 13.517 53.1471 13.5191C54.0573 13.5191 54.7079 13.7456 55.0989 14.1987C55.4899 14.6538 55.6886 15.3244 55.6886 16.2104V19.3477C55.6886 20.2337 55.4899 20.9134 55.0925 21.3806C54.6951 21.8479 54.0477 22.0815 53.1471 22.0815C52.2466 22.0815 51.5799 21.8449 51.1857 21.3837ZM53.8682 20.6312C54.0083 20.3404 54.072 20.0219 54.0541 19.7027V15.8615C54.0721 15.5485 54.0094 15.2361 53.8714 14.9512C53.7929 14.8414 53.6833 14.7547 53.5553 14.7011C53.4272 14.6474 53.2858 14.629 53.1471 14.6478C53.0081 14.6294 52.8664 14.6481 52.7379 14.7017C52.6094 14.7553 52.4992 14.8417 52.4196 14.9512C52.2787 15.2353 52.2148 15.5481 52.2337 15.8615V19.7209C52.2143 20.0402 52.2781 20.3591 52.4196 20.6494C52.5099 20.7473 52.6212 20.8257 52.7461 20.8795C52.8711 20.9332 53.0067 20.961 53.1439 20.961C53.2812 20.961 53.4168 20.9332 53.5417 20.8795C53.6666 20.8257 53.778 20.7473 53.8682 20.6494V20.6312Z"/>
<path d="M57.5505 13.6104H59.2171L60.4702 19.3989L61.7522 13.6104H63.3739L63.5374 21.9656H62.3387L62.2105 16.1588L60.9734 21.9656H60.0119L58.7299 16.1375L58.6114 21.9656H57.3999L57.5505 13.6104Z"/>
<path d="M65.4059 13.6104H68.0018C69.4974 13.6104 70.2452 14.4012 70.2452 15.9828C70.2452 17.4977 69.4579 18.2542 67.8832 18.2521H66.9987V21.9656H65.3962L65.4059 13.6104ZM67.6236 17.1812C67.782 17.2002 67.9428 17.1865 68.0949 17.1409C68.2471 17.0953 68.387 17.019 68.505 16.9172C68.6887 16.6351 68.7698 16.3036 68.7357 15.9737C68.7441 15.7188 68.7183 15.464 68.6588 15.2153C68.636 15.1322 68.5959 15.0542 68.5408 14.986C68.4858 14.9178 68.417 14.8606 68.3383 14.8178C68.1159 14.7168 67.87 14.6709 67.6236 14.6843H67.0019V17.1812H67.6236Z"/>
<path d="M72.5561 13.6104H74.2771L76.043 21.9656H74.5495L74.2002 20.0391H72.665L72.3061 21.9656H70.7902L72.5561 13.6104ZM74.0271 19.0713L73.4278 15.5642L72.8285 19.0713H74.0271Z"/>
<path d="M77.4691 13.6104H78.5909L80.7382 18.3765V13.6104H82.0682V21.9656H81.001L78.8409 16.9901V21.9656H77.4659L77.4691 13.6104Z"/>
<path d="M85.1834 18.7799L83.3983 13.6221H84.9014L85.9911 16.9352L87.0134 13.6221H88.4845L86.7218 18.7799V21.9656H85.1834V18.7799Z"/>
<path d="M47.2148 25.6191V26.056H45.9072V29.4512H45.3592V26.056H44.0452V25.6191H47.2148Z"/>
<path d="M51.3138 29.4514H50.8908C50.8478 29.454 50.8054 29.441 50.7722 29.415C50.7402 29.3928 50.7157 29.3622 50.7017 29.327L50.3235 28.4169H48.5095L48.1313 29.327C48.1206 29.3651 48.1008 29.4004 48.0736 29.4302C48.0401 29.4556 47.9979 29.4685 47.955 29.4666H47.532L49.1345 25.6348H49.6921L51.3138 29.4514ZM48.6601 28.0285H50.1729L49.5319 26.4691C49.4846 26.3512 49.445 26.2306 49.4133 26.1081C49.3909 26.1809 49.3716 26.2507 49.3524 26.3113L49.2947 26.4721L48.6601 28.0285Z"/>
<path d="M54.0765 29.0751C54.1769 29.0801 54.2774 29.0801 54.3778 29.0751C54.4644 29.0666 54.5502 29.0514 54.6342 29.0296C54.7127 29.0113 54.7898 28.988 54.8649 28.9598C54.9354 28.9325 55.0059 28.8991 55.0797 28.8657V28.004H54.4387C54.4228 28.0048 54.407 28.0026 54.3921 27.9973C54.3772 27.9921 54.3636 27.984 54.3521 27.9736C54.3416 27.965 54.3333 27.9543 54.3277 27.9422C54.3222 27.9301 54.3196 27.917 54.3201 27.9038V27.6095H55.5636V29.0781C55.4621 29.1469 55.3549 29.2077 55.2431 29.2602C55.1288 29.3136 55.0098 29.3572 54.8874 29.3907C54.7563 29.4272 54.6223 29.4535 54.4867 29.4695C54.3314 29.4859 54.1752 29.494 54.0188 29.4938C53.7424 29.496 53.4682 29.4476 53.2112 29.3512C52.9712 29.2599 52.7532 29.1236 52.5702 28.9507C52.3918 28.776 52.2513 28.5698 52.1568 28.3438C52.0557 28.0898 52.0057 27.8202 52.0093 27.5488C52.006 27.2757 52.0548 27.0043 52.1536 26.7477C52.2457 26.5207 52.3865 26.314 52.567 26.1409C52.7499 25.9685 52.968 25.8332 53.208 25.7434C53.4824 25.6456 53.7737 25.5973 54.0669 25.6008C54.2161 25.6006 54.3651 25.6117 54.5124 25.6341C54.6426 25.6542 54.7704 25.6868 54.8938 25.7312C55.0059 25.7711 55.1133 25.822 55.2143 25.883C55.3125 25.9428 55.4057 26.0098 55.4931 26.0832L55.3393 26.3199C55.3272 26.3415 55.3093 26.3597 55.2873 26.3725C55.2653 26.3853 55.2401 26.3923 55.2143 26.3927C55.1788 26.3916 55.1444 26.3811 55.1149 26.3624C55.0668 26.3381 55.0156 26.3078 54.9579 26.2714C54.8897 26.2309 54.8179 26.1964 54.7431 26.1682C54.6476 26.1319 54.549 26.1035 54.4483 26.0832C54.314 26.0598 54.1777 26.0486 54.0413 26.0498C53.8298 26.0476 53.6199 26.0837 53.4227 26.156C53.2444 26.2238 53.0836 26.3273 52.9516 26.4595C52.8188 26.5972 52.7173 26.7594 52.6535 26.9359C52.5103 27.3509 52.5103 27.7983 52.6535 28.2133C52.7237 28.3935 52.8328 28.5579 52.974 28.6958C53.1055 28.8273 53.265 28.9307 53.4419 28.9992C53.6457 29.0655 53.8617 29.0913 54.0765 29.0751Z" />
<path d="M59.1851 29.0143H60.9351V29.4512H58.6499V25.6191H59.198L59.1851 29.0143Z"/>
<path d="M62.7555 29.4512H62.2074V25.6191H62.7555V29.4512Z"/>
<path d="M64.7938 25.6369C64.8263 25.6545 64.8547 25.6782 64.8771 25.7067L67.2199 28.5953C67.2167 28.5498 67.2167 28.5042 67.2199 28.4587C67.2199 28.4163 67.2199 28.3738 67.2199 28.3343V25.6035H67.6974V29.4509H67.4218C67.3809 29.4541 67.34 29.4468 67.3032 29.4297C67.2699 29.4106 67.2406 29.3859 67.2167 29.3569L64.8771 26.4713C64.8771 26.5168 64.8771 26.5593 64.8771 26.6018C64.8771 26.6443 64.8771 26.6837 64.8771 26.7201V29.4509H64.4188V25.6187H64.7041C64.735 25.6187 64.7656 25.6249 64.7938 25.6369Z"/>
<path d="M71.7324 25.6191V26.0409H69.7903V27.3061H71.3639V27.7127H69.7903V29.0204H71.7324V29.4421H69.2262V25.6191H71.7324Z"/>
<path d="M14.3035 1.95391L38.6385 8.49527V31.4173L14.3035 24.879V1.95391ZM12.7427 0V25.9925L40.1961 33.3743V7.38482L12.7427 0Z"/>
<path d="M27.4565 45.4402L0 38.0522V12.0625L27.4565 19.4474V45.4402Z"/>
<path d="M13.1978 1.65958L37.2155 8.11891L27.0014 17.7912L2.98057 11.3288L13.1978 1.65958ZM12.7427 0L0 12.0631L27.4565 19.4478L40.196 7.38469L12.7427 0Z"/>
<path d="M29.0013 43.978L40.196 33.3774L29.0013 30.3647V43.978Z"/>
</symbol>
</svg>